<?xml version="1.0" encoding="utf-8"?>
<!-- Uploaded to: SVG Repo, www.svgrepo.com, Generator: SVG Repo Mixer Tools -->
<svg fill="#000000" version="1.1" id="Layer_1" xmlns="http://www.w3.org/2000/svg" xmlns:xlink="http://www.w3.org/1999/xlink" 
	 width="800px" height="800px" viewBox="0 0 256 253" enable-background="new 0 0 256 253" xml:space="preserve">
<path d="M180.455,161.486c0.085,0,0.128-0.043,0.214-0.085c1.666-0.811,2.392-2.861,1.537-4.57c-0.811-1.666-2.861-2.392-4.57-1.537
	l-31.176,15.46l34.592-23.531c0.043-0.043,0.128-0.085,0.171-0.128c1.495-1.153,1.751-3.288,0.598-4.783
	c-1.153-1.495-3.288-1.751-4.783-0.598l-37.368,29.083H73.434c1.324,21.951,15.502,40.357,35.147,47.703v7.388h38.436v-7.388
	c19.645-7.345,33.823-25.752,35.147-47.703h-24.257L180.455,161.486z M145.436,143.891c0.982-1.281,1.666-2.178,1.666-4.228
	s-0.726-2.947-1.666-4.228l-0.214-0.256c-0.641-0.854-0.47-2.05,0.384-2.69c0.854-0.641,2.05-0.47,2.69,0.384l0.214,0.256
	c1.068,1.409,2.434,3.203,2.434,6.534s-1.367,5.125-2.434,6.534c-0.982,1.281-1.666,2.178-1.666,4.228s0.726,2.947,1.666,4.228
	c0.342,0.47,0.726,0.94,1.068,1.495c0.555,0.897,0.256,2.093-0.641,2.648c-0.342,0.214-0.683,0.299-1.025,0.299
	c-0.641,0-1.238-0.299-1.623-0.897c-0.256-0.384-0.555-0.769-0.854-1.196c-1.068-1.409-2.434-3.203-2.434-6.534
	S144.326,145.343,145.436,143.891z M126.09,137.485c1.452-1.922,2.733-3.587,2.733-7.047c0-3.459-1.281-5.125-2.733-7.047
	l-0.299-0.427c-0.641-0.854-0.47-2.05,0.384-2.69s2.05-0.47,2.69,0.384l0.299,0.384c1.666,2.178,3.545,4.655,3.545,9.395
	c0,4.783-1.879,7.217-3.545,9.395c-1.452,1.922-2.733,3.587-2.733,7.047s1.281,5.125,2.733,7.047
	c0.512,0.683,1.068,1.409,1.58,2.221c0.555,0.897,0.256,2.093-0.641,2.648c-0.342,0.214-0.683,0.299-1.025,0.299
	c-0.641,0-1.238-0.299-1.623-0.897c-0.427-0.683-0.854-1.281-1.367-1.922c-1.666-2.178-3.545-4.612-3.545-9.395
	C122.546,142.14,124.425,139.663,126.09,137.485z M106.702,143.891c0.982-1.281,1.666-2.178,1.666-4.228s-0.726-2.947-1.666-4.228
	l-0.214-0.256c-0.641-0.854-0.47-2.05,0.384-2.69c0.854-0.641,2.05-0.47,2.69,0.384l0.214,0.256
	c1.068,1.409,2.434,3.203,2.434,6.534s-1.367,5.125-2.434,6.534c-0.982,1.281-1.666,2.178-1.666,4.228s0.726,2.947,1.666,4.228
	c0.342,0.47,0.726,0.94,1.068,1.495c0.555,0.897,0.256,2.093-0.641,2.648c-0.342,0.214-0.683,0.299-1.025,0.299
	c-0.641,0-1.238-0.299-1.623-0.897c-0.256-0.384-0.555-0.769-0.854-1.196c-1.068-1.409-2.434-3.203-2.434-6.534
	S105.634,145.343,106.702,143.891z M2,69c0,13.678,9.625,25.302,22,29.576V233H2v18h252v-18h-22V98.554
	c12.89-3.945,21.699-15.396,22-29.554v-8H2V69z M65.29,68.346c0,6.477,6.755,31.47,31.727,31.47
	c21.689,0,31.202-19.615,31.202-31.47c0,11.052,7.41,31.447,31.464,31.447c21.733,0,31.363-20.999,31.363-31.447
	c0,14.425,9.726,26.416,22.954,30.154V233H42V98.594C55.402,94.966,65.29,82.895,65.29,68.346z M254,54H2l32-32V2h189v20h-0.168
	L254,54z"/>
</svg>